<svg xmlns="http://www.w3.org/2000/svg" xmlns:xlink="http://www.w3.org/1999/xlink" width="104" height="134" viewBox="0 0 104 134">
  <defs>
    <filter id="Ellipse_16" x="0" y="30" width="104" height="104" filterUnits="userSpaceOnUse">
      <feOffset dy="3" input="SourceAlpha"/>
      <feGaussianBlur stdDeviation="3" result="blur"/>
      <feFlood flood-color="#849caa" flood-opacity="0.161"/>
      <feComposite operator="in" in2="blur"/>
      <feComposite in="SourceGraphic"/>
    </filter>
  </defs>
  <g id="Group_99" data-name="Group 99" transform="translate(-1452 -4751)">
    <g transform="matrix(1, 0, 0, 1, 1452, 4751)" filter="url(#Ellipse_16)">
      <circle id="Ellipse_16-2" data-name="Ellipse 16" cx="43" cy="43" r="43" transform="translate(9 36)" fill="#f7f7f7"/>
    </g>
    <g id="Layer_2" transform="translate(1466.314 4751)">
      <g id="Layer_3">
        <path id="Path_34274" data-name="Path 34274" d="M33.284,34.968a15.121,15.121,0,1,0-10.755-4.429,15.184,15.184,0,0,0,10.755,4.429Zm0-25.475A10.045,10.045,0,1,1,26.1,12.435a10.123,10.123,0,0,1,7.181-2.942Z" transform="translate(3.832 -4.6)" fill="#f5df94"/>
        <path id="Path_34275" data-name="Path 34275" d="M84.731,59.685a43.92,43.92,0,0,0-52.468-32.73h0A43.451,43.451,0,0,0,5.1,46.526l4.386,2.7A38.6,38.6,0,1,1,75.114,89.884l4.386,2.7A44.77,44.77,0,0,0,84.731,59.685Z" transform="translate(-5.1 9.992)" fill="#f5df94"/>
      </g>
    </g>
  </g>
</svg>
